<svg width="50" height="50" viewBox="0 0 50 50" fill="none" xmlns="http://www.w3.org/2000/svg">
<rect width="50" height="50" rx="25" fill="black"/>
<path d="M7.84609 20.5352H13.6469C15.7823 20.5352 17.4424 21.0299 18.6273 22.0195C19.8253 22.9961 20.4242 24.3568 20.4242 26.1016C20.4242 27.2344 20.1378 28.25 19.5648 29.1484C19.0049 30.0339 18.2237 30.7305 17.2211 31.2383C16.2315 31.7461 15.0922 32 13.8031 32H7.84609L7.7875 30.8867L9.05703 30.5156C9.09609 30.4635 9.12865 30.151 9.15469 29.5781C9.18073 28.9922 9.19375 28.276 9.19375 27.4297V25.0859C9.19375 24.2656 9.18073 23.556 9.15469 22.957C9.12865 22.3581 9.09609 22.0326 9.05703 21.9805L7.7875 21.6484L7.84609 20.5352ZM12.4945 22C12.4945 22.0651 12.488 22.2409 12.475 22.5273C12.475 22.8138 12.4685 23.1784 12.4555 23.6211C12.4555 24.0508 12.4555 24.5391 12.4555 25.0859V27.4297C12.4555 27.7422 12.4555 28.0938 12.4555 28.4844C12.4685 28.862 12.4815 29.2201 12.4945 29.5586C12.5206 29.8971 12.5401 30.1576 12.5531 30.3398C12.7615 30.3919 13.0023 30.4375 13.2758 30.4766C13.5622 30.5026 13.8227 30.5156 14.057 30.5156C14.9945 30.5156 15.6977 30.2292 16.1664 29.6562C16.6352 29.0703 16.8695 28.1003 16.8695 26.7461C16.8695 25.7826 16.7654 24.9883 16.557 24.3633C16.3487 23.7383 16.0753 23.25 15.7367 22.8984C15.3982 22.5469 15.0336 22.2995 14.643 22.1562C14.2523 22 13.8747 21.9219 13.5102 21.9219C13.3539 21.9219 13.1846 21.9284 13.0023 21.9414C12.8201 21.9544 12.6508 21.974 12.4945 22ZM24.6336 32.1562C23.9956 32.1562 23.4487 32.0195 22.993 31.7461C22.5372 31.4596 22.1922 31.1211 21.9578 30.7305C21.7234 30.3268 21.6063 29.9622 21.6063 29.6367C21.6063 29.1289 21.7495 28.7122 22.0359 28.3867C22.3354 28.0482 22.7846 27.8008 23.3836 27.6445L26.5086 26.8047V26.3164C26.5086 26.056 26.424 25.8086 26.2547 25.5742C26.0984 25.3398 25.8901 25.1445 25.6297 24.9883C25.3693 24.832 25.1023 24.7539 24.8289 24.7539C24.6857 24.7539 24.5815 24.7995 24.5164 24.8906C24.4513 24.9688 24.4057 25.1055 24.3797 25.3008L24.243 26.7461C23.4878 26.8893 22.8758 26.8633 22.407 26.668C21.9383 26.4727 21.7039 26.1471 21.7039 25.6914C21.7039 25.4049 21.8536 25.1185 22.1531 24.832C22.4656 24.5326 22.8432 24.2656 23.2859 24.0312C23.7286 23.7839 24.1648 23.582 24.5945 23.4258C25.0242 23.2565 25.3693 23.1589 25.6297 23.1328C26.9057 23.1328 27.9148 23.4062 28.657 23.9531C29.3992 24.487 29.7638 25.2227 29.7508 26.1602L29.6922 28.5234C29.6922 28.9661 29.7052 29.2786 29.7313 29.4609C29.7573 29.6432 29.8029 29.7995 29.868 29.9297L31.1766 30.1641V31.1406L29.6922 31.8047C29.4448 31.9219 29.2039 32.0065 28.9695 32.0586C28.7352 32.1237 28.5073 32.1562 28.2859 32.1562C27.7 32.1562 27.2833 31.8698 27.0359 31.2969L26.6063 30.3203L27.0945 30.4375C26.7039 30.9583 26.2872 31.375 25.8445 31.6875C25.4148 32 25.0112 32.1562 24.6336 32.1562ZM25.9227 30.0273C26.0268 30.0273 26.131 30.0143 26.2352 29.9883C26.3523 29.9492 26.4565 29.8971 26.5477 29.832V28.0156L25.7664 28.0547C25.4409 28.0677 25.2065 28.1523 25.0633 28.3086C24.9201 28.4648 24.8484 28.6602 24.8484 28.8945C24.8484 29.181 24.9591 29.4414 25.1805 29.6758C25.4018 29.9102 25.6492 30.0273 25.9227 30.0273ZM33.882 32.1953C33.2831 32.1953 32.7622 31.987 32.3195 31.5703C31.8898 31.1536 31.675 30.6458 31.675 30.0469C31.675 29.6302 31.7727 29.2591 31.968 28.9336C32.1763 28.5951 32.4497 28.3281 32.7883 28.1328C33.1268 27.9245 33.4914 27.8203 33.882 27.8203C34.494 27.8203 35.0148 28.0417 35.4445 28.4844C35.8872 28.9141 36.1086 29.4349 36.1086 30.0469C36.1086 30.6458 35.8872 31.1536 35.4445 31.5703C35.0148 31.987 34.494 32.1953 33.882 32.1953ZM36.8023 32L36.7437 30.9453L38.0133 30.6328C38.0263 30.5677 38.0393 30.4245 38.0523 30.2031C38.0654 29.9818 38.0784 29.7344 38.0914 29.4609C38.1044 29.1875 38.1109 28.9466 38.1109 28.7383L38.1305 27.293C38.1305 26.9284 38.1174 26.6289 38.0914 26.3945C38.0784 26.1602 38.0393 25.8477 37.9742 25.457L36.6852 25.1836V24.168L40.7477 23.1719L41.4312 23.5234C41.3922 23.9661 41.3596 24.4089 41.3336 24.8516C41.3206 25.2943 41.3141 25.7826 41.3141 26.3164V28.8164C41.3141 29.1419 41.3206 29.5 41.3336 29.8906C41.3596 30.2812 41.3792 30.5286 41.3922 30.6328L42.6617 30.9453L42.6031 32H36.8023ZM39.7516 22C39.0875 22 38.5797 21.8112 38.2281 21.4336C37.8896 21.043 37.7203 20.6068 37.7203 20.125C37.7203 19.6302 37.8896 19.194 38.2281 18.8164C38.5797 18.4388 39.0875 18.25 39.7516 18.25C40.4156 18.25 40.9104 18.4388 41.2359 18.8164C41.5745 19.194 41.7437 19.6302 41.7437 20.125C41.7437 20.6068 41.5745 21.043 41.2359 21.4336C40.9104 21.8112 40.4156 22 39.7516 22Z" fill="white"/>
</svg>
